<mxfile host="app.diagrams.net" agent="Mozilla/5.0 (X11; Linux x86_64; rv:134.0) Gecko/20100101 Firefox/134.0" version="26.1.3">
  <diagram name="Page-1" id="hTK2rCj1x4Jl0QdKw4r0">
    <mxGraphModel dx="1390" dy="694" grid="1" gridSize="10" guides="1" tooltips="1" connect="1" arrows="1" fold="1" page="1" pageScale="1" pageWidth="850" pageHeight="1100" math="0" shadow="0">
      <root>
        <mxCell id="0" />
        <mxCell id="1" parent="0" />
        <mxCell id="Y_2bjGsiQl2T25fW46LQ-3" style="edgeStyle=orthogonalEdgeStyle;rounded=0;orthogonalLoop=1;jettySize=auto;html=1;exitX=0.5;exitY=1;exitDx=0;exitDy=0;" edge="1" parent="1" source="Y_2bjGsiQl2T25fW46LQ-1" target="Y_2bjGsiQl2T25fW46LQ-2">
          <mxGeometry relative="1" as="geometry" />
        </mxCell>
        <mxCell id="Y_2bjGsiQl2T25fW46LQ-1" value="&lt;div&gt;Hyper Spectral Data&lt;/div&gt;" style="rounded=0;whiteSpace=wrap;html=1;" vertex="1" parent="1">
          <mxGeometry x="330" y="110" width="120" height="60" as="geometry" />
        </mxCell>
        <mxCell id="Y_2bjGsiQl2T25fW46LQ-5" value="" style="edgeStyle=orthogonalEdgeStyle;rounded=0;orthogonalLoop=1;jettySize=auto;html=1;" edge="1" parent="1" source="Y_2bjGsiQl2T25fW46LQ-2" target="Y_2bjGsiQl2T25fW46LQ-4">
          <mxGeometry relative="1" as="geometry" />
        </mxCell>
        <mxCell id="Y_2bjGsiQl2T25fW46LQ-2" value="Extract Edges and Vertices" style="rounded=0;whiteSpace=wrap;html=1;" vertex="1" parent="1">
          <mxGeometry x="330" y="220" width="120" height="60" as="geometry" />
        </mxCell>
        <mxCell id="Y_2bjGsiQl2T25fW46LQ-4" value="GATConv" style="rounded=0;whiteSpace=wrap;html=1;" vertex="1" parent="1">
          <mxGeometry x="330" y="360" width="120" height="60" as="geometry" />
        </mxCell>
      </root>
    </mxGraphModel>
  </diagram>
</mxfile>
